<svg width="34" height="29" viewBox="0 0 34 29" fill="none" xmlns="http://www.w3.org/2000/svg">
<path d="M33.3642 9.41318L9.22691 0.518343C8.91818 0.404865 8.57517 0.561893 8.46134 0.869229C8.46109 0.869478 8.46109 0.869727 8.46084 0.869976L5.78884 8.10445C5.67526 8.41178 5.83362 8.75272 6.14261 8.8657H6.14311L8.94095 9.88749L8.32449 11.5581C8.21115 11.8654 8.36952 12.2058 8.6785 12.3188L14.2752 14.3627L13.8639 15.4763C13.4901 16.4737 13.8389 17.5965 14.7135 18.21V21.236H6.69202C6.30373 20.3531 5.50913 19.7121 4.56017 19.5165V18.2712C4.56017 17.9437 4.29347 17.6782 3.96398 17.6782H1.56043C1.23118 17.6782 0.964233 17.9437 0.964233 18.2712V27.7588C0.964233 28.0865 1.23118 28.3518 1.56043 28.3518H3.96398C4.29347 28.3518 4.56017 28.0865 4.56017 27.7588V26.5138C5.50913 26.3179 6.30373 25.6771 6.69202 24.7939H14.7135V25.3869C14.7135 26.3694 15.5141 27.166 16.5019 27.166C17.4896 27.166 18.2904 26.3694 18.2904 25.3869V18.8179C18.8323 18.5506 19.2509 18.087 19.4596 17.5221L19.8709 16.4085L24.9076 18.2468C24.9734 18.2709 25.0427 18.2831 25.1128 18.2831C25.3627 18.2831 25.5864 18.1281 25.6727 17.8947L25.8961 17.2892C27.8361 17.6523 29.7045 16.3824 30.0692 14.453C30.2041 13.74 30.1165 13.0032 29.8183 12.3412L33.4323 10.4954C33.7252 10.3461 33.8411 9.98878 33.691 9.69737C33.6229 9.56498 33.5073 9.46295 33.3672 9.41143L33.3642 9.41318ZM15.9057 18.7502L16.3993 18.9282C16.6239 19.0083 16.8596 19.0543 17.098 19.0645V21.236H15.9057V18.7502ZM3.36803 27.166H2.15662V18.8642H3.36803V27.166ZM5.75256 23.6081C5.75156 24.3617 5.27421 25.0333 4.56017 25.2857V20.7446C5.27421 20.9966 5.75156 21.6683 5.75256 22.4221V23.6081ZM6.96347 22.4221H17.098V23.6081H6.96347V22.4221ZM16.5019 25.98C16.1726 25.98 15.9057 25.7144 15.9057 25.3869V24.7939H17.098V25.3869C17.098 25.7144 16.8311 25.98 16.5019 25.98ZM18.7518 16.0001L18.3405 17.1138C18.1133 17.7279 17.4285 18.043 16.8106 17.8175L15.6892 17.4089C15.0713 17.1832 14.754 16.5018 14.981 15.8869C14.981 15.8869 14.981 15.8869 14.981 15.8866L15.3925 14.7738L18.4143 15.8772L18.7518 16.0001ZM24.7593 16.9311L9.64898 11.412L10.0605 10.2984L19.0142 13.5688C19.2261 13.6455 19.4638 13.5974 19.6287 13.4441L21.3017 11.8776L25.9922 13.5912L24.7593 16.9311ZM28.79 14.6135C28.4123 15.6266 27.3962 16.2597 26.3152 16.1554L27.2364 13.6594L28.741 12.8887C28.9764 13.4367 28.9939 14.0533 28.79 14.6135ZM26.7778 12.5632C26.7463 12.5659 26.715 12.5714 26.6842 12.5796L21.369 10.6383C21.1571 10.5609 20.9194 10.6089 20.7548 10.7627L19.0798 12.3295L7.11358 7.95862L9.37377 1.83728L31.6794 10.0572L26.7778 12.5632Z" fill="#E3B873"/>
</svg>
